<svg xmlns="http://www.w3.org/2000/svg" viewBox="0 0 193.6 181.4"><style>.st0{fill:#500000}.st1{fill:#fff}.st2{fill:#b1b3b6}</style><title>Artboard 1</title><path class="st0" d="M0 0h180v181.4H0z"/><path class="st1" d="M156.1 72.2H142l-.4.7-9.7 20.2-9.7-20.2-.3-.7H106.9v9.4h3.5v28.8H106.8v9.4h16.9v-9.4H120V89.9l10.8 22.4 1.1 2.3 1.1-2.3 11-22.4v20.5H140.4v9.4h16.9v-9.4h-3.7V81.6h3.7v-9.4zM71.8 110.4H68l-12.6-29h2.4V72H37.7v9.4h2.8l-12.6 29h-5.2v9.4H41v-9.4h-2.7l2.1-4.8h15.1l2.1 4.8h-2.8v9.4h18.3v-9.4h-1.3zM51.5 96.2h-7l3.5-8.1 3.5 8.1z"/><path class="st1" d="M140.7 35.9H37.5V65.9h20.4V54.4h21.7v71.7H68.1v20.4h43.4v-20.4H100V54.4h21.6v11.4H142.2V35.9z"/><path class="st2" d="M103.1 134.5l4.3-4.5v12.2l-4.3-4.1zM95.9 130.4l-4.3 4.2V46l4.3 4.3zM46.1 44.4l-4.4-4.3h94.1l-5.6 4.3zM138.1 61.9l-4.3-4.1v-11l4.3-4.4z"/><path class="st0" d="M186.4 177.8c0-2 1.6-3.6 3.6-3.6s3.6 1.6 3.6 3.6-1.6 3.6-3.6 3.6-3.6-1.6-3.6-3.6zm6.3 0c-.1-1.5-1.4-2.6-2.9-2.5-1.5.1-2.6 1.4-2.5 2.9.1 1.4 1.3 2.5 2.7 2.5 1.5 0 2.8-1.3 2.7-2.8v-.1zm-4.1-2h1.5c1 0 1.5.3 1.5 1.2.1.5-.3 1-.9 1.1h-.2l1.1 1.8h-.8l-1.1-1.8h-.5v1.8h-.8l.2-4.1zm.8 1.7h.7c.4 0 .8-.1.8-.6s-.4-.6-.8-.6h-.7v1.2z"/></svg>