<?xml version="1.0" encoding="UTF-8"?>
<svg width="350pt" version="1.1" xmlns="http://www.w3.org/2000/svg" height="80pt" viewBox="0 0 350 80" xmlns:xlink="http://www.w3.org/1999/xlink">
 <defs>
  <clipPath id="Clip0">
   <path d="M0 0 L333.336 0 L333.336 75.459 L0 75.459 L0 0 Z" transform="translate(2, 2)"/>
  </clipPath>
  <clipPath id="Clip1">
   <path d="M0 0 L333.336 0 L333.336 75.459 L0 75.459 L0 0 Z" transform="translate(2, 2)"/>
  </clipPath>
  <clipPath id="Clip2">
   <path d="M0 0 L333.336 0 L333.336 75.459 L0 75.459 L0 0 Z" transform="translate(2, 2)"/>
  </clipPath>
 </defs>
 <g id="Background">
  <g id="Group3" clip-path="url(#Clip0)">
   <g id="Background" clip-path="url(#Clip1)">
    <g id="Group1" clip-path="url(#Clip2)">
     <path style="fill:#202f39; fill-rule:nonzero;stroke:none;" d="M9.962 9.342 C9.603 11.623 8.782 13.243 5.701 14.024 L4.281 14.383 C1.021 14.383 0 12.364 0.5 9.203 L1.801 0.96 L0.061 0.701 L0.261 0 L2.92 0.061 L5.661 0 L5.661 0.701 L3.902 0.96 L2.482 9.582 C2.16 11.483 3.102 13.343 5.482 13.343 C7.122 12.743 8.063 11.903 8.462 9.342 L9.803 0.96 L8.063 0.701 L8.263 0 L10.542 0.061 L13.083 0 L13.083 0.701 L11.303 0.96 L9.962 9.342 Z" transform="translate(58.036, 58.734)"/>
     <path style="fill:#202f39; fill-rule:nonzero;stroke:none;" d="M6.961 2.941 C7.101 2.181 7.021 1.601 6.321 1.601 C5.741 1.601 4.961 2.021 4.439 2.381 L3.479 3.041 L2.3 9.703 L0.6 9.703 L2.08 1.381 L0.22 2.041 L0 1.48 L3.28 0 L3.9 0.64 L3.72 1.601 L3.439 2.201 L6.861 0 C8.461 0 9.002 1.08 8.801 2.241 L7.681 8.502 L9.341 7.463 L9.682 7.963 L6.841 10.003 L5.821 9.363 L6.961 2.941 Z" transform="translate(69.917, 63.055)"/>
     <path style="fill:#202f39; fill-rule:nonzero;stroke:none;" d="M3.041 0.099 L3.621 0 L4.741 0.099 L4.741 1.06 L4.401 1.919 L3.861 2.02 L2.601 1.919 L2.681 0.919 L3.041 0.099 Z M0.221 6.201 L0 5.64 L3.281 4.16 L3.901 4.8 L2.522 12.662 L4.181 11.621 L4.522 12.123 L1.681 14.162 L0.661 13.523 L2.081 5.541 L0.221 6.201 Z" transform="translate(80.496, 58.895)"/>
     <path style="fill:#202f39; fill-rule:nonzero;stroke:none;" d="M6.321 1.06 L8.041 0 L8.821 1.06 L8.402 3.381 L3.881 10.003 L2.261 9.602 L2.021 1.421 L0.221 2.06 L0 1.501 L3.28 0 L3.821 0.56 L3.821 8.022 L3.66 8.922 L7.642 2.761 L6.321 1.06 Z" transform="translate(85.536, 63.055)"/>
     <path style="fill:#202f39; fill-rule:nonzero;stroke:none;" d="M2 4.721 L5.261 3.381 C5.4 2.941 5.46 2.64 5.46 2.3 C5.46 1.4 4.98 1.06 4.38 0.961 C2.94 1.56 2.26 3.14 2 4.721 Z M6.321 7.243 L6.681 7.743 C6.181 8.162 5.041 8.982 4.08 9.543 L3.3 10.003 C1.34 10.003 0 8.502 0 6.322 C0 3.8 1.439 1.381 4 0.421 L5.121 0 C6.381 0.22 7.321 0.74 7.321 2.101 C7.321 2.56 7.201 3.121 6.961 3.821 L1.92 5.422 C1.9 5.601 1.9 5.781 1.9 5.941 C1.9 7.722 3.02 8.502 3.96 8.522 C4.66 8.222 5.641 7.702 6.321 7.243 " transform="translate(94.957, 63.055)"/>
     <path style="fill:#202f39; fill-rule:nonzero;stroke:none;" d="M3.541 2.181 L2.901 4.341 L5.582 0.201 L7.181 0.201 L6.762 2.041 L5.882 2.041 C5.342 2.361 4.541 3.101 3.961 3.841 L3.18 4.841 L2.301 9.702 L0.6 9.702 L2.081 1.381 L0.22 2.041 L0 1.48 L3.281 0 L3.801 0.541 L3.541 2.181 Z" transform="translate(103.176, 63.055)"/>
     <path style="fill:#202f39; fill-rule:nonzero;stroke:none;" d="M2.401 10.003 C1.821 9.783 0.401 9.142 0 8.841 L0.96 7.422 C1.52 7.802 2.821 8.543 3.5 8.883 C4.2 8.662 4.481 8.261 4.481 7.542 C4.481 7.162 4.34 6.601 3.901 6.201 L2.2 4.641 C1.74 4.201 1.361 3.541 1.361 2.881 C1.361 1.82 2.14 1.06 3.942 0.4 L5.021 0 C5.521 0.1 6.761 0.68 7.241 0.941 L6.322 2.361 C5.761 2.001 4.621 1.381 4.001 1.1 C3.441 1.3 3.06 1.681 3.06 2.261 C3.06 2.741 3.22 3.161 3.74 3.64 L5.322 5.082 C5.921 5.641 6.241 6.201 6.241 6.962 C6.241 8.102 5.721 8.883 4.18 9.402 L2.401 10.003 Z" transform="translate(109.656, 63.055)"/>
     <path style="fill:#202f39; fill-rule:nonzero;stroke:none;" d="M3.041 0.099 L3.621 0 L4.742 0.099 L4.742 1.06 L4.402 1.919 L3.862 2.02 L2.601 1.919 L2.681 0.919 L3.041 0.099 Z M0.221 6.201 L0 5.64 L3.282 4.16 L3.902 4.8 L2.521 12.662 L4.181 11.621 L4.521 12.123 L1.681 14.162 L0.661 13.523 L2.081 5.541 L0.221 6.201 Z" transform="translate(117.695, 58.895)"/>
     <path style="fill:#202f39; fill-rule:nonzero;stroke:none;" d="M4.842 10.442 L1.521 12.223 L0.5 11.662 L1.861 3.721 L0 3.721 L0.101 3.38 L0.841 2.681 L2.041 2.681 L2.301 1.28 L3.741 0 L4.222 0 L3.722 2.78 L6.443 2.78 L7.643 2.22 L8.662 2.86 L9.523 11.122 L12.903 4.981 L11.583 3.28 L13.304 2.22 L14.083 3.28 L13.663 5.601 L7.103 16.624 L4.541 16.624 L4.861 14.783 L6.383 14.783 L9.122 11.802 L8.002 11.922 L6.781 3.62 L5.501 3.721 L3.562 3.721 L2.361 10.722 L4.522 9.842 L4.842 10.442 Z" transform="translate(123.535, 60.835)"/>
     <path style="fill:#202f39; fill-rule:nonzero;stroke:none;" d="M1.901 5.742 C1.901 7.982 2.92 8.841 4.04 9.043 C5.862 8.442 6.442 5.941 6.442 4.262 C6.442 2.021 5.381 1.16 4.261 0.961 C2.441 1.56 1.901 4.061 1.901 5.742 Z M8.342 3.981 C8.342 6.422 6.942 8.642 4.482 9.543 L3.261 10.003 C1.54 10.003 0 8.602 0 6.021 C0 3.582 1.401 1.361 3.861 0.461 L5.081 0 C6.802 0 8.342 1.4 8.342 3.981 " transform="translate(143.315, 63.055)"/>
     <path style="fill:#202f39; fill-rule:nonzero;stroke:none;" d="M2.561 17.364 C3.001 16.885 3.301 16.184 3.381 15.704 L5.061 6.102 L3.121 6.102 L3.221 5.741 L3.961 5.081 L5.242 5.081 L5.421 4.001 C5.602 2.941 5.983 2.081 6.722 1.601 L9.262 0 L10.903 0 L10.582 1.581 L8.102 1.581 C7.642 2.021 7.322 2.78 7.242 3.302 L6.922 5.142 L9.183 5.142 L8.962 6.102 L6.742 6.102 L5.202 15.003 C5.022 16.003 4.602 16.944 3.881 17.403 L1.401 19.005 L0 19.005 L0.34 17.364 L2.561 17.364 Z" transform="translate(149.454, 58.454)"/>
     <path style="fill:#202f39; fill-rule:nonzero;stroke:none;" d="M4.981 13.082 L6.642 13.343 L6.441 14.043 L3.801 13.983 L1.18 14.043 L1.18 13.343 L2.981 13.082 L4.922 0.92 L2.121 0.981 L0.8 3.521 L0 3.521 L0.56 0 L6.081 0.062 L11.563 0 L11.043 3.521 L10.242 3.521 L9.782 0.981 L6.922 0.92 L4.981 13.082 Z" transform="translate(163.555, 58.734)"/>
     <path style="fill:#202f39; fill-rule:nonzero;stroke:none;" d="M2 4.721 L5.262 3.381 C5.401 2.941 5.461 2.64 5.461 2.3 C5.461 1.4 4.981 1.06 4.381 0.961 C2.941 1.56 2.261 3.14 2 4.721 Z M6.322 7.243 L6.682 7.743 C6.182 8.162 5.041 8.982 4.081 9.543 L3.301 10.003 C1.341 10.003 0 8.502 0 6.322 C0 3.8 1.441 1.381 4 0.421 L5.122 0 C6.382 0.22 7.322 0.74 7.322 2.101 C7.322 2.56 7.202 3.121 6.962 3.821 L1.921 5.422 C1.901 5.601 1.901 5.781 1.901 5.941 C1.901 7.722 3.021 8.502 3.961 8.522 C4.661 8.222 5.642 7.702 6.322 7.243 " transform="translate(173.315, 63.055)"/>
     <path style="fill:#202f39; fill-rule:nonzero;stroke:none;" d="M3.12 1.281 L1.361 1.941 L1.141 1.381 L4.181 0 L4.801 0.541 L5.561 3.181 L5.561 4.162 L8.042 0.201 L9.962 0.201 L9.542 1.941 L8.661 1.941 C8.062 2.101 7.762 2.361 6.962 3.401 L6.002 4.641 L7.161 8.463 L8.882 7.521 L9.202 8.043 L6.362 10.003 L5.661 9.522 L4.821 6.801 L4.821 5.882 L1.921 9.801 L0 9.801 L0.42 8.062 L1.581 8.062 C2.181 7.902 2.601 7.622 3.401 6.562 L4.361 5.301 L3.12 1.281 Z" transform="translate(180.615, 63.055)"/>
     <path style="fill:#202f39; fill-rule:nonzero;stroke:none;" d="M3.221 8.482 L5.381 6.662 L6.242 1.8 C5.721 1.441 4.561 1.16 3.881 1.16 C2.881 1.961 1.901 3.561 1.901 5.841 C1.901 7.242 2.581 8.162 3.221 8.482 Z M6.762 8.502 L8.422 7.461 L8.762 7.963 L5.922 10.003 L4.901 9.363 L5.101 8.181 L5.441 7.322 L2.601 10.003 C1.281 9.703 0 8.782 0 6.242 C0 3.621 1.341 1.76 3.661 0.6 L4.861 0 C5.601 0.041 7.042 0.44 8.102 0.841 L6.762 8.502 Z" transform="translate(191.175, 63.055)"/>
     <path style="fill:#202f39; fill-rule:nonzero;stroke:none;" d="M2.4 10.003 C1.82 9.783 0.4 9.142 0 8.841 L0.96 7.422 C1.52 7.802 2.82 8.543 3.5 8.883 C4.2 8.662 4.481 8.261 4.481 7.542 C4.481 7.162 4.341 6.601 3.9 6.201 L2.2 4.641 C1.74 4.201 1.36 3.541 1.36 2.881 C1.36 1.82 2.14 1.06 3.941 0.4 L5.021 0 C5.521 0.1 6.761 0.68 7.241 0.941 L6.321 2.361 C5.761 2.001 4.621 1.381 4.001 1.1 C3.44 1.3 3.06 1.681 3.06 2.261 C3.06 2.741 3.22 3.161 3.74 3.64 L5.321 5.082 C5.922 5.641 6.241 6.201 6.241 6.962 C6.241 8.102 5.721 8.883 4.18 9.402 L2.4 10.003 Z" transform="translate(200.135, 63.055)"/>
     <path style="fill:#202f39; fill-rule:nonzero;stroke:none;" d="M4.841 0.061 L7.581 0 L7.581 0.701 L5.741 0.96 L3.801 13.103 L8.422 13.043 L10.322 10.323 L11.082 10.323 L9.863 14.043 L2.721 13.983 L0 14.043 L0 13.343 L1.801 13.081 L3.74 0.96 L1.981 0.701 L2.181 0 L4.841 0.061 Z" transform="translate(212.074, 58.734)"/>
     <path style="fill:#202f39; fill-rule:nonzero;stroke:none;" d="M3.041 0.099 L3.621 0 L4.741 0.099 L4.741 1.06 L4.401 1.919 L3.861 2.02 L2.6 1.919 L2.68 0.919 L3.041 0.099 Z M0.22 6.201 L0 5.64 L3.281 4.16 L3.901 4.8 L2.521 12.662 L4.18 11.621 L4.521 12.123 L1.68 14.162 L0.661 13.523 L2.081 5.541 L0.22 6.201 Z" transform="translate(224.054, 58.895)"/>
     <path style="fill:#202f39; fill-rule:nonzero;stroke:none;" d="M2.719 7.882 L1.879 12.623 C2.58 13.083 3.58 13.463 4.26 13.463 C5.68 12.803 6.281 10.643 6.281 8.962 C6.281 7.182 5.68 6.321 5.121 6.161 L2.719 7.882 Z M5.64 4.601 C7.041 4.86 8.18 5.942 8.18 8.222 C8.18 10.743 6.9 13.163 4.46 14.123 L3.219 14.604 C2.2 14.503 1.12 14.224 0 13.683 L2.179 1.181 L0.24 1.721 L0 1.101 L3.519 0 L4 0.46 L3 6.262 L2.639 7.161 L5.64 4.601 Z" transform="translate(229.895, 58.454)"/>
     <path style="fill:#202f39; fill-rule:nonzero;stroke:none;" d="M3.541 2.181 L2.9 4.341 L5.582 0.201 L7.181 0.201 L6.761 2.041 L5.881 2.041 C5.341 2.361 4.541 3.101 3.961 3.841 L3.18 4.841 L2.3 9.702 L0.6 9.702 L2.081 1.381 L0.22 2.041 L0 1.48 L3.28 0 L3.8 0.541 L3.541 2.181 Z" transform="translate(238.974, 63.055)"/>
     <path style="fill:#202f39; fill-rule:nonzero;stroke:none;" d="M3.22 8.482 L5.381 6.662 L6.242 1.8 C5.72 1.441 4.56 1.16 3.881 1.16 C2.881 1.961 1.9 3.561 1.9 5.841 C1.9 7.242 2.581 8.162 3.22 8.482 Z M6.761 8.502 L8.422 7.461 L8.761 7.963 L5.921 10.003 L4.9 9.363 L5.1 8.181 L5.44 7.322 L2.6 10.003 C1.28 9.703 0 8.782 0 6.242 C0 3.621 1.341 1.76 3.661 0.6 L4.86 0 C5.6 0.041 7.042 0.44 8.101 0.841 L6.761 8.502 Z" transform="translate(246.054, 63.055)"/>
     <path style="fill:#202f39; fill-rule:nonzero;stroke:none;" d="M3.541 2.181 L2.9 4.341 L5.581 0.201 L7.181 0.201 L6.761 2.041 L5.882 2.041 C5.341 2.361 4.541 3.101 3.961 3.841 L3.18 4.841 L2.3 9.702 L0.6 9.702 L2.08 1.381 L0.22 2.041 L0 1.48 L3.28 0 L3.8 0.541 L3.541 2.181 Z" transform="translate(255.514, 63.055)"/>
     <path style="fill:#202f39; fill-rule:nonzero;stroke:none;" d="M3.041 0.099 L3.62 0 L4.742 0.099 L4.742 1.06 L4.401 1.919 L3.861 2.02 L2.601 1.919 L2.681 0.919 L3.041 0.099 Z M0.221 6.201 L0 5.64 L3.281 4.16 L3.901 4.8 L2.521 12.662 L4.181 11.621 L4.521 12.123 L1.681 14.162 L0.661 13.523 L2.08 5.541 L0.221 6.201 Z" transform="translate(263.193, 58.895)"/>
     <path style="fill:#202f39; fill-rule:nonzero;stroke:none;" d="M2 4.721 L5.261 3.381 C5.399 2.941 5.46 2.64 5.46 2.3 C5.46 1.4 4.979 1.06 4.38 0.961 C2.939 1.56 2.26 3.14 2 4.721 Z M6.32 7.243 L6.681 7.743 C6.181 8.162 5.04 8.982 4.079 9.543 L3.3 10.003 C1.34 10.003 0 8.502 0 6.322 C0 3.8 1.439 1.381 4 0.421 L5.12 0 C6.381 0.22 7.32 0.74 7.32 2.101 C7.32 2.56 7.2 3.121 6.961 3.821 L1.92 5.422 C1.899 5.601 1.899 5.781 1.899 5.941 C1.899 7.722 3.02 8.502 3.96 8.522 C4.659 8.222 5.641 7.702 6.32 7.243 " transform="translate(268.834, 63.055)"/>
     <path style="fill:#202f39; fill-rule:nonzero;stroke:none;" d="M2.4 10.003 C1.82 9.783 0.4 9.142 0 8.841 L0.96 7.422 C1.519 7.802 2.82 8.543 3.5 8.883 C4.2 8.662 4.48 8.261 4.48 7.542 C4.48 7.162 4.34 6.601 3.9 6.201 L2.2 4.641 C1.74 4.201 1.36 3.541 1.36 2.881 C1.36 1.82 2.14 1.06 3.94 0.4 L5.02 0 C5.52 0.1 6.761 0.68 7.241 0.941 L6.321 2.361 C5.761 2.001 4.621 1.381 4.001 1.1 C3.439 1.3 3.059 1.681 3.059 2.261 C3.059 2.741 3.22 3.161 3.74 3.64 L5.321 5.082 C5.921 5.641 6.241 6.201 6.241 6.962 C6.241 8.102 5.721 8.883 4.18 9.402 L2.4 10.003 Z" transform="translate(276.254, 63.055)"/>
     <path style="fill:#dd6700; fill-rule:nonzero;stroke:none;" d="M0 0.0156 L0.0459 0.0156 L0.0459 0 L0 0 L0 0.0156 Z" transform="translate(22.9258, 20.0215)"/>
     <path style="fill:#dd6700; fill-rule:nonzero;stroke:none;" d="M21.4541 4.5996 L21.4541 3.1543 L20.5635 3.1543 L20.5635 0.6865 L19.9599 0.6865 C18.6855 0.6865 17.4179 0.5 16.1904 0.3203 C15.0713 0.1562 14.0127 0 13.0361 0 C12.1172 0 11.3584 0.1445 10.7275 0.4414 C10.0967 0.1445 9.3369 0 8.4189 0 C7.4424 0 6.3838 0.1562 5.2637 0.3203 C4.0371 0.5 2.7685 0.6865 1.4931 0.6865 L0.8926 0.6865 L0.8926 3.1543 L0 3.1543 L0 4.5996 L0.8926 4.5996 L0.8926 6.5566 L0.0107 6.5566 L0.0107 8.0019 L0.8926 8.0019 L0.8926 10.6816 L1.4931 10.6816 C2.8564 10.6816 4.1924 10.4746 5.4853 10.2753 C6.5771 10.1074 7.6084 9.9472 8.4892 9.9472 C9.2002 9.9472 9.7334 10.0507 10.1465 10.2656 L11.3086 10.2666 C11.7207 10.0507 12.2549 9.9472 12.9638 9.9472 C13.8467 9.9472 14.8779 10.1074 15.9697 10.2753 C17.2617 10.4746 18.6006 10.6816 19.9599 10.6816 L20.5635 10.6816 L20.5635 8.0019 L21.4443 8.0019 L21.4443 6.5566 L20.5635 6.5566 L20.5635 4.5996 L21.4541 4.5996 Z M5.3017 9.0849 C4.3008 9.2402 3.2724 9.3955 2.249 9.4531 L2.5224 1.8515 C3.5205 1.788 4.4922 1.6503 5.4385 1.5117 C6.5137 1.3535 7.5303 1.205 8.4189 1.205 C9.1103 1.205 9.6553 1.2929 10.1035 1.4804 L10.1035 2.5351 L9.876 8.8935 C9.4678 8.7949 9.0127 8.7451 8.4892 8.7451 C7.5166 8.7451 6.4404 8.9101 5.3017 9.0849 Z M16.1533 9.0849 C15.0146 8.9101 13.9385 8.7451 12.9638 8.7451 C12.4424 8.7451 11.9863 8.7949 11.5781 8.8935 L11.3506 2.5351 L11.3506 1.4804 C11.7998 1.2929 12.3447 1.205 13.0361 1.205 C13.9248 1.205 14.9404 1.3535 16.0166 1.5117 C16.9619 1.6503 17.9346 1.788 18.9336 1.8515 L19.2041 9.4531 C18.1806 9.3955 17.1533 9.2402 16.1533 9.0849 Z" transform="translate(12.2217, 6.4102)"/>
     <path style="fill:#dd6700; fill-rule:nonzero;stroke:none;" d="M1.9336 0 C1.874 0.0088 1.8154 0.0176 1.7559 0.0263 C1.1895 0.1093 0.6143 0.1933 0.0332 0.2597 L0 1.2343 C0.6426 1.164 1.2734 1.0713 1.8955 0.9795 C1.9082 0.9765 1.9209 0.9756 1.9336 0.9726 L1.9336 0 Z" transform="translate(15.7539, 9.0137)"/>
     <path style="fill:#dd6700; fill-rule:nonzero;stroke:none;" d="M0 0.2304 L0 1.2031 C1.0253 1.0605 1.9648 0.958 2.7812 1.0254 L2.8144 0.0654 C1.9453 0 0.9921 0.0957 0 0.2304 Z" transform="translate(18.4102, 8.6807)"/>
     <path style="fill:#dd6700; fill-rule:nonzero;stroke:none;" d="M2.0937 0 C2.0341 0.0087 1.9755 0.0175 1.916 0.0263 C1.2978 0.1171 0.6699 0.2089 0.0351 0.2783 L0 1.2509 C0.6972 1.1777 1.3828 1.0781 2.0556 0.9794 L2.0937 0.9736 L2.0937 0 Z" transform="translate(15.5938, 13.4229)"/>
     <path style="fill:#dd6700; fill-rule:nonzero;stroke:none;" d="M0 0.2178 L0 1.1905 C0.9589 1.0577 1.8457 0.959 2.623 1.002 L2.6562 0.043 C1.83 0 0.9326 0.0909 0 0.2178 Z" transform="translate(18.4102, 13.1025)"/>
     <path style="fill:#dd6700; fill-rule:nonzero;stroke:none;" d="M0 0.3632 L0 1.3378 L0.1113 1.3203 C1.3994 1.1328 2.5771 0.9589 3.5732 1.0253 L3.6074 0.0683 C2.5049 0 1.2744 0.1757 0 0.3632 Z" transform="translate(17.5381, 10.877)"/>
     <path style="fill:#dd6700; fill-rule:nonzero;stroke:none;" d="M1.1425 0 C0.7763 0.0527 0.4072 0.1015 0.0351 0.1455 L0 1.1171 C0.3857 1.0761 0.7666 1.0253 1.1425 0.9736 L1.1425 0 Z" transform="translate(15.6729, 11.3438)"/>
     <path style="fill:#dd6700; fill-rule:nonzero;stroke:none;" d="M2.3759 0.1641 C1.5419 0.0616 0.7392 0 0 0.0557 L0.0341 1.0157 C0.7304 0.959 1.5205 1.0254 2.3759 1.1348 L2.3759 0.1641 Z" transform="translate(24.6729, 8.6904)"/>
     <path style="fill:#dd6700; fill-rule:nonzero;stroke:none;" d="M2.3389 0.3222 C1.7578 0.2558 1.1826 0.1718 0.6162 0.0888 C0.4092 0.0586 0.2031 0.0283 0 0 L0 0.9726 C0.1562 0.9951 0.3174 1.0176 0.4765 1.042 C1.0986 1.1338 1.7305 1.2265 2.374 1.2968 L2.3389 0.3222 Z" transform="translate(27.7715, 8.9512)"/>
     <path style="fill:#dd6700; fill-rule:nonzero;stroke:none;" d="M2.0976 0.1309 C1.3652 0.0478 0.6582 0 0 0.041 L0.0341 0.998 C0.6572 0.957 1.3496 1.0078 2.0976 1.0996 L2.0976 0.1309 Z" transform="translate(24.752, 10.9043)"/>
     <path style="fill:#dd6700; fill-rule:nonzero;stroke:none;" d="M2.6172 0.3613 C2.0097 0.2929 1.4072 0.205 0.8154 0.1171 C0.541 0.0781 0.2695 0.038 0 0 L0 0.9726 C0.2216 1.0039 0.4472 1.0371 0.6757 1.0703 C1.3232 1.166 1.9824 1.2617 2.6523 1.3339 L2.6172 0.3613 Z" transform="translate(27.5723, 11.127)"/>
     <path style="fill:#dd6700; fill-rule:nonzero;stroke:none;" d="M0 0.9737 C0.6572 1.0704 1.3272 1.167 2.0088 1.2383 L1.9746 0.2657 C1.3389 0.1963 0.711 0.1045 0.0928 0.0137 C0.0615 0.0088 0.0313 0.0049 0 0 L0 0.9737 Z" transform="translate(28.2949, 13.4355)"/>
     <path style="fill:#dd6700; fill-rule:nonzero;stroke:none;" d="M2.7422 0.2304 C1.7793 0.0976 0.8525 0 0 0.0429 L0.0351 1.0029 C0.8359 0.9589 1.75 1.0634 2.7422 1.2041 L2.7422 0.2304 Z" transform="translate(24.8301, 13.1016)"/>
     <path style="fill:#dd6700; fill-rule:nonzero;stroke:none;" d="M0.041 6.543 L5.4864 10.503 L3.3887 16.9541 C3.3907 16.9659 3.3955 16.9786 3.4063 16.9864 C3.416 16.9942 3.4278 16.9942 3.4395 16.9942 L8.9297 13.002 L14.418 16.9913 C14.4297 16.9942 14.4424 16.9913 14.4512 16.9864 C14.4688 16.9717 14.4727 16.9483 14.4629 16.9278 L12.375 10.501 L17.8184 6.545 L17.8184 6.542 C17.8438 6.5332 17.8594 6.5079 17.8516 6.4825 C17.8438 6.459 17.8164 6.4463 17.7891 6.4541 L17.7891 6.4522 L11.0586 6.4522 L8.9785 0.0498 L8.9756 0.0498 C8.9756 0.0215 8.9551 0 8.9297 0 C8.9043 0 8.8838 0.0215 8.8838 0.0498 L8.8809 0.0498 L6.8028 6.4522 L0.0703 6.4522 L0.0684 6.4561 C0.043 6.4473 0.0157 6.46 0.0078 6.4844 C0 6.5079 0.0137 6.5342 0.041 6.543 Z M7.6758 7.6553 L8.9297 4.5205 L10.1836 7.6553 L13.5537 7.8799 L10.959 10.042 L11.7871 13.3135 L8.9297 11.5137 L6.0723 13.3135 L6.9024 10.042 L4.3067 7.8799 L7.6758 7.6553 Z" transform="translate(14.0195, 21.2275)"/>
     <path style="fill:#dd6700; fill-rule:nonzero;stroke:none;" d="M30.5225 9.833 C31.6455 9.4951 32.587 8.7559 33.1729 7.7481 C33.7588 6.7422 33.9405 5.5567 33.6827 4.4131 L33.5694 3.9102 L33.0752 4.0576 C32.5069 4.2266 31.9834 4.501 31.5303 4.8613 C31.6358 4.3018 31.6348 3.7227 31.5245 3.1543 C31.3037 2.0059 30.6612 0.9942 29.7149 0.3047 L29.2979 0 L29.0235 0.4365 C28.4024 1.4258 28.1807 2.6055 28.3985 3.7549 C28.6182 4.8945 29.2569 5.9004 30.1944 6.5918 C30.0205 6.9844 29.9024 7.3955 29.8448 7.8184 C29.5664 7.0567 29.0918 6.3731 28.4522 5.8457 L28.0537 5.5156 L27.753 5.9356 C27.0752 6.8848 26.7823 8.0488 26.9307 9.209 C27.083 10.3643 27.6631 11.4151 28.5674 12.1621 L28.5889 12.1768 C28.3233 12.5371 28.1143 12.9307 27.9639 13.3486 C27.8506 12.5449 27.5264 11.7793 27.0088 11.1299 L26.6885 10.7246 L26.3077 11.0752 C25.4463 11.8643 24.9209 12.9404 24.8272 14.1084 C24.7354 15.2695 25.0889 16.4141 25.8174 17.332 L25.836 17.3555 C25.502 17.6504 25.2159 17.9942 24.9825 18.3711 C25.0371 17.5586 24.8799 16.7422 24.5078 16 L24.2764 15.5391 L23.8321 15.8037 C22.8262 16.3985 22.0889 17.3438 21.7569 18.4649 C21.4287 19.586 21.5362 20.7774 22.0596 21.8262 L22.0733 21.8516 C21.6846 22.0723 21.334 22.3477 21.0284 22.6699 C21.2491 21.8867 21.2627 21.0547 21.0518 20.2539 L20.9209 19.7539 L20.4327 19.918 C19.3262 20.293 18.4102 21.0664 17.8516 22.0957 C17.3174 23.0889 17.1719 24.2383 17.4327 25.335 C17.2852 25.4365 17.1309 25.542 16.9698 25.651 C16.8096 25.542 16.6543 25.4365 16.5069 25.335 C16.7676 24.2383 16.6231 23.0889 16.087 22.0938 C15.5303 21.0664 14.6143 20.293 13.5069 19.918 L13.0186 19.7539 L12.8877 20.2539 C12.6768 21.0547 12.6905 21.8867 12.9112 22.6699 C12.6055 22.3477 12.2559 22.0723 11.8672 21.8516 L11.8799 21.8262 C12.4043 20.7774 12.5118 19.586 12.1836 18.4649 C11.8506 17.3438 11.1133 16.3985 10.1075 15.8037 L9.6641 15.5391 L9.4327 16 C9.0596 16.7422 8.9034 17.5586 8.958 18.3711 C8.7237 17.9922 8.4385 17.6504 8.1045 17.3555 L8.1221 17.332 C8.8526 16.4141 9.2041 15.2695 9.1123 14.1055 C9.0186 12.9404 8.4932 11.8643 7.6319 11.0752 L7.252 10.7246 L6.9307 11.1299 C6.4131 11.7793 6.0899 12.5449 5.9756 13.3486 C5.8262 12.9307 5.6172 12.5371 5.3516 12.1768 L5.3731 12.1621 C6.2764 11.4151 6.8575 10.3643 7.0088 9.209 C7.1582 8.0488 6.8662 6.8848 6.1866 5.9356 L5.8858 5.5156 L5.4883 5.8457 C4.8477 6.3731 4.3731 7.0567 4.0957 7.8203 C4.0381 7.3955 3.9209 6.9844 3.7452 6.5918 C4.6836 5.9004 5.3213 4.8945 5.5411 3.7539 C5.7588 2.6035 5.5371 1.4258 4.9161 0.4365 L4.6416 0 L4.2246 0.3047 C3.2784 0.9942 2.6358 2.0059 2.4151 3.1524 C2.3057 3.7227 2.3037 4.3008 2.4092 4.8613 C1.9561 4.501 1.4327 4.2266 0.8653 4.0576 L0.3711 3.9102 L0.2578 4.4131 C0 5.5567 0.1807 6.7422 0.7666 7.7481 C1.3526 8.7559 2.294 9.4951 3.417 9.833 L3.8526 9.9629 C3.8975 10.3291 3.9893 10.6895 4.1211 11.0371 C3.4991 10.6387 2.7881 10.3955 2.0381 10.336 L1.5245 10.294 L1.5166 10.8106 C1.501 11.9824 1.9229 13.1026 2.7041 13.9658 C3.4854 14.8311 4.5596 15.3604 5.7276 15.458 L6.1807 15.4961 C6.2998 15.8467 6.4639 16.1797 6.6651 16.4893 C6.1573 16.2988 5.6202 16.1992 5.0674 16.1992 C4.8721 16.1992 4.6758 16.2119 4.4825 16.2344 L3.9707 16.3008 L4.0703 16.8047 C4.2979 17.957 4.9414 18.9668 5.8848 19.6524 C6.669 20.2227 7.6006 20.5235 8.5752 20.5235 C8.7666 20.5235 8.961 20.5117 9.1495 20.4883 L9.6006 20.4297 C9.792 20.7481 10.0196 21.0391 10.2823 21.3028 C9.5508 21.1934 8.7998 21.2578 8.0928 21.5039 L7.6045 21.6738 L7.8077 22.1485 C8.2666 23.2256 9.1065 24.082 10.169 24.5557 C10.7598 24.8194 11.3848 24.9522 12.0284 24.9522 C12.542 24.9522 13.0498 24.8662 13.5381 24.6983 L13.8975 24.5733 C14.4971 25.083 15.1748 25.591 16.1065 26.229 C15.6807 26.509 15.212 26.815 14.6866 27.151 L15.5918 27.714 C16.1036 27.384 16.5567 27.087 16.9698 26.812 C17.3828 27.087 17.836 27.384 18.3477 27.714 L19.253 27.151 C18.7286 26.815 18.2588 26.509 17.834 26.229 C18.7647 25.591 19.4424 25.083 20.042 24.5733 L20.4034 24.6983 C20.8916 24.8662 21.3975 24.9522 21.9112 24.9522 C22.5557 24.9522 23.1807 24.8194 23.7705 24.5576 C24.836 24.082 25.6729 23.2256 26.1319 22.1485 L26.336 21.6738 L25.8467 21.5039 C25.1397 21.2578 24.3887 21.1934 23.6582 21.3047 C23.92 21.041 24.1485 20.7481 24.3389 20.4297 L24.7901 20.4883 C24.9805 20.5117 25.1729 20.5235 25.3643 20.5235 L25.3662 20.5235 C26.3389 20.5235 27.2705 20.2227 28.0557 19.6524 C28.9981 18.9668 29.6426 17.957 29.8692 16.8047 L29.9688 16.3008 L29.4571 16.2344 C29.2637 16.2119 29.0664 16.1992 28.8721 16.1992 C28.3203 16.1992 27.7823 16.2988 27.2745 16.4893 C27.4756 16.1797 27.6397 15.8467 27.7608 15.4961 L28.212 15.458 C29.3809 15.3604 30.4541 14.8311 31.2344 13.9658 C32.0166 13.1026 32.4385 11.9824 32.4229 10.8106 L32.4151 10.294 L31.9014 10.336 C31.1524 10.3955 30.4405 10.6387 29.8184 11.0371 C29.9512 10.6895 30.042 10.3291 30.0879 9.9629 L30.5225 9.833 Z M4.8077 8.9199 C4.9034 8.1934 5.2129 7.5205 5.6944 6.9785 C6.0205 7.627 6.1475 8.3574 6.0537 9.084 C5.958 9.8096 5.6485 10.4834 5.1661 11.0244 C4.8379 10.377 4.712 9.6455 4.8077 8.9199 Z M3.3614 3.334 C3.5 2.6133 3.8506 1.961 4.3623 1.4492 C4.6495 2.1153 4.7315 2.8516 4.5948 3.5723 C4.4561 4.292 4.1065 4.9453 3.5928 5.459 C3.3037 4.791 3.2217 4.0547 3.3614 3.334 Z M3.169 8.709 C2.5147 8.3955 1.9678 7.8955 1.6006 7.2637 C1.2315 6.6309 1.0655 5.9082 1.1162 5.1826 C1.7686 5.4942 2.3155 5.9922 2.6866 6.627 C3.0537 7.2598 3.2198 7.9824 3.169 8.709 Z M3.419 13.3213 C2.9287 12.7793 2.6162 12.1035 2.5166 11.3848 C3.2188 11.5518 3.8565 11.9297 4.3496 12.4746 C4.8409 13.0147 5.1524 13.6875 5.251 14.4092 C4.5469 14.2393 3.9092 13.8633 3.419 13.3213 Z M7.3662 12.1973 C7.8194 12.7637 8.0928 13.4502 8.1534 14.1826 C8.211 14.9141 8.044 15.6348 7.6846 16.2656 C7.2295 15.7002 6.9561 15.0098 6.8995 14.2783 C6.8428 13.5479 7.0069 12.8252 7.3662 12.1973 Z M6.4502 18.8711 C5.8565 18.4414 5.4131 17.8477 5.1661 17.1641 C5.8946 17.1836 6.5909 17.418 7.1846 17.8496 C7.7784 18.2774 8.2217 18.8711 8.4678 19.5586 C7.7373 19.5352 7.042 19.3008 6.4502 18.8711 Z M13.7178 21.0547 C14.3604 21.3867 14.8897 21.9063 15.2393 22.5508 C15.587 23.1983 15.7276 23.9258 15.6534 24.6475 C15.0088 24.3115 14.4795 23.792 14.1338 23.1475 C13.7842 22.5 13.6436 21.7735 13.7178 21.0547 Z M10.0537 19.0899 C9.8467 18.3867 9.8584 17.6445 10.0801 16.958 C10.6387 17.416 11.0508 18.0313 11.2598 18.7363 C11.4659 19.4414 11.4541 20.1817 11.2315 20.8711 C10.67 20.4102 10.2588 19.793 10.0537 19.0899 Z M10.5616 23.6758 C9.8926 23.3789 9.336 22.8877 8.9522 22.2695 C9.6631 22.1406 10.3995 22.2266 11.0703 22.5254 C11.7383 22.8242 12.295 23.3115 12.6778 23.9307 C11.9659 24.0615 11.2286 23.9736 10.5616 23.6758 Z M18.6983 22.5547 C19.0498 21.9063 19.5791 21.3867 20.2217 21.0547 C20.2959 21.7735 20.1553 22.5 19.8057 23.1475 C19.461 23.792 18.9317 24.3115 18.2862 24.6475 C18.212 23.9258 18.3526 23.1983 18.6983 22.5547 Z M24.9873 22.2695 C24.6045 22.8877 24.0479 23.3789 23.377 23.6758 C22.9121 23.8838 22.419 23.9893 21.9112 23.9893 C21.6924 23.9893 21.4756 23.9707 21.2627 23.9307 C21.6455 23.3115 22.2012 22.8242 22.8702 22.5254 C23.5391 22.2266 24.2764 22.1406 24.9873 22.2695 Z M23.8858 19.0918 C23.6807 19.793 23.2696 20.4102 22.708 20.8711 C22.4854 20.1817 22.4737 19.4414 22.6797 18.7383 C22.8887 18.0332 23.3008 17.416 23.8604 16.958 C24.0821 17.6445 24.0928 18.3867 23.8858 19.0918 Z M25.7862 14.1836 C25.8467 13.4502 26.1202 12.7637 26.5733 12.1973 C26.9327 12.8252 27.0967 13.5479 27.0401 14.2793 C26.9834 15.0098 26.709 15.7002 26.2549 16.2656 C25.8955 15.6348 25.7295 14.9141 25.7862 14.1836 Z M27.4893 18.8711 C26.8975 19.3008 26.2022 19.5352 25.4727 19.5586 C25.7188 18.8711 26.1612 18.2774 26.7549 17.8496 C27.3487 17.418 28.0459 17.1836 28.7745 17.1641 C28.5264 17.8477 28.083 18.4414 27.4893 18.8711 Z M32.8233 5.1826 C32.8741 5.9082 32.708 6.6309 32.3389 7.2637 C31.9717 7.8955 31.4268 8.3955 30.7715 8.709 C30.7207 7.9824 30.8858 7.2598 31.2539 6.627 C31.625 5.9922 32.1709 5.4942 32.8233 5.1826 Z M29.3448 3.5742 C29.208 2.8516 29.2911 2.1153 29.5772 1.4492 C30.0899 1.961 30.4395 2.6153 30.5772 3.336 C30.7178 4.0547 30.6358 4.791 30.3467 5.459 C29.833 4.9453 29.4834 4.292 29.3448 3.5742 Z M27.8858 9.086 C27.792 8.3574 27.919 7.627 28.2452 6.9785 C28.7276 7.5205 29.0362 8.1934 29.1319 8.9219 C29.2286 9.6455 29.1016 10.377 28.7745 11.0244 C28.292 10.4834 27.9815 9.8096 27.8858 9.086 Z M30.5205 13.3213 C30.0303 13.8633 29.3926 14.2393 28.6885 14.4092 C28.7881 13.6875 29.0987 13.0147 29.5889 12.4746 C30.084 11.9297 30.7217 11.5518 31.4229 11.3848 C31.3233 12.1035 31.0127 12.7793 30.5205 13.3213 Z" transform="translate(5.9443, 22.541)"/>
     <path style="fill:#dd6700; fill-rule:nonzero;stroke:none;" d="M41.8906 1.5186 L41.0469 1.4131 C40.9346 1.3984 29.7021 0.001 20.9551 0 L20.9492 0 L20.9424 0 C12.1953 0.001 0.9648 1.3984 0.8516 1.4131 L0.0078 1.5186 L0.0078 17.0586 L0 17.0586 L0 19.2275 C0 25.7734 0.6484 34.2354 5.707 41.6426 C6.75 43.168 7.9346 44.5752 9.3535 45.9443 L9.3525 45.9463 C9.3623 45.9551 9.3701 45.9619 9.3809 45.9697 C12.125 48.61 15.752 51.102 20.9395 53.992 L20.9395 54 C20.9414 53.997 20.9424 53.997 20.9443 53.997 C20.9463 53.997 20.9473 53.997 20.9492 54 L20.9492 53.992 C26.1367 51.102 29.7637 48.61 32.5078 45.9697 C32.5176 45.9619 32.5264 45.9551 32.5352 45.9463 L32.5352 45.9443 C33.9531 44.5752 35.1387 43.168 36.1816 41.6426 C41.2402 34.2354 41.8887 25.7734 41.8887 19.2275 L41.8887 18.9189 L41.8906 18.918 L41.8906 1.5186 Z M2.9414 3.1289 C6.4766 2.7373 14.4248 1.9453 20.9492 1.9453 C27.4727 1.9453 35.4199 2.7373 38.9561 3.1289 L39.9453 17.0586 L20.9492 17.0586 L1.9521 17.0586 L2.9414 3.1289 Z M34.5908 40.5547 C33.6094 41.9902 32.4863 43.3223 31.1328 44.6182 C26.9551 48.456 22.2656 50.574 20.9443 51.125 C19.623 50.574 14.9336 48.456 10.7559 44.6182 C9.4023 43.3223 8.2793 41.9902 7.2979 40.5547 C2.5537 33.6084 1.9316 25.5527 1.9277 19.2939 L1.9326 19.293 L20.9492 18.2363 L39.9619 19.292 C39.957 25.5518 39.335 33.6084 34.5908 40.5547 Z" transform="translate(2, 2)"/>
     <path style="fill:#dd6700; fill-rule:nonzero;stroke:none;" d="M18.484 14.2431 L16.605 14.3037 L16.504 13.6025 L17.484 13.4033 L17.484 7.6816 C17.484 6.6416 17.004 6.1806 16.203 6.1806 C15.604 6.1806 14.823 6.622 14.083 7.081 L13.483 7.4619 L13.483 13.4033 L14.583 13.6025 L14.483 14.3037 L12.583 14.2431 L10.482 14.3037 L10.383 13.6025 L11.582 13.4033 L11.582 1.1601 L10.862 1.2802 L6.802 1.2197 L6.802 13.3427 L9.103 13.6025 L9.002 14.3037 L5.762 14.2431 L2.401 14.3037 L2.301 13.6025 L4.701 13.3427 L4.701 1.2197 L1.7 1.2802 L0.78 3.7802 L0 3.7802 L0 0.2402 L5.741 0.2802 L10.662 0.2402 L12.804 0 L13.483 0 L13.483 6.4814 L16.403 4.581 C18.964 4.581 19.385 5.5419 19.385 8.082 L19.385 13.4033 L20.885 13.6025 L20.784 14.3037 L18.484 14.2431 Z" transform="translate(55.456, 4.8311)"/>
     <path style="fill:#dd6700; fill-rule:nonzero;stroke:none;" d="M5.981 3.6016 C5.981 2.0606 5.681 1 4.14 1 C2.921 1 2.14 2.1406 1.98 3.8008 L5.981 3.6016 Z M1.96 4.6016 C1.96 6.8809 3.18 8.502 5.281 8.502 C6.081 8.502 7.041 8.1221 7.781 7.6621 L8.101 8.4219 C7.141 9.082 5.882 9.6426 4.601 10.002 C2.18 10.002 0 8.2813 0 5.1406 C0 2.1807 1.78 0.5996 4.521 0 C7.161 0 8.061 1.6602 8.061 3.7608 L8.061 4.6016 L1.96 4.6016 Z" transform="translate(77.176, 9.4121)"/>
     <path style="fill:#dd6700; fill-rule:nonzero;stroke:none;" d="M8.783 0.6992 L8.882 0 L11.444 0.0596 L13.784 0 L13.883 0.6992 L12.183 0.959 L12.183 9.1211 C12.183 11.7227 11.122 13.4629 7.142 14.3828 C3.202 14.3828 1.801 12.2627 1.801 9.082 L1.801 0.959 L0 0.6992 L0.101 0 L2.862 0.0596 L5.602 0 L5.702 0.6992 L4.001 0.959 L4.001 9.3809 C4.001 11.8613 5.062 13.2822 7.342 13.2822 C9.422 13.2822 10.582 11.8818 10.582 9.3213 L10.582 0.959 L8.783 0.6992 Z" transform="translate(90.275, 5.0918)"/>
     <path style="fill:#dd6700; fill-rule:nonzero;stroke:none;" d="M2.5 9.6621 L0.201 9.7227 L0.1 9.0215 L1.5 8.8223 L1.5 1.5205 L0.1 1.6406 L0 0.9404 L2.401 0.3203 L3.26 0.2598 L3.361 1.9404 L6.322 0 C8.881 0 9.302 0.8604 9.302 3.2608 L9.302 8.8223 L10.823 9.0215 L10.722 9.7227 L8.421 9.6621 L6.501 9.7227 L6.402 9.0215 L7.402 8.8223 L7.402 3.1006 C7.402 2.0606 6.942 1.5996 6.082 1.5996 C5.381 1.5996 4.681 2.041 4 2.5 L3.401 2.9004 L3.401 8.8223 L4.5 9.0215 L4.401 9.7227 L2.5 9.6621 Z" transform="translate(104.356, 9.4121)"/>
     <path style="fill:#dd6700; fill-rule:nonzero;stroke:none;" d="M1.5 0.1006 L2.941 0 L3.5 0.1006 L3.6 1.2207 L3.38 2.1807 L1.96 2.3008 L1.42 2.1807 L1.3 1.0606 L1.5 0.1006 Z M2.5 13.8633 L0.201 13.9239 L0.1 13.2227 L1.5 13.0235 L1.5 5.7217 L0.1 5.8418 L0 5.1416 L2.401 4.5215 L3.401 4.4414 L3.401 13.0235 L4.901 13.2227 L4.801 13.9239 L2.5 13.8633 Z" transform="translate(115.816, 5.2109)"/>
     <path style="fill:#dd6700; fill-rule:nonzero;stroke:none;" d="M5.621 8.1416 L8.041 0.8994 L7.121 0.7002 L7.222 0 L8.982 0.0596 L10.641 0 L10.742 0.7002 L9.462 0.8994 L6.18 9.1221 L4.721 9.7217 L1.24 0.8994 L0 0.7002 L0.099 0 L2.4 0.0596 L4.501 0 L4.601 0.7002 L3.281 0.8994 L5.461 6.7607 L5.621 8.1416 Z" transform="translate(120.716, 9.6924)"/>
     <path style="fill:#dd6700; fill-rule:nonzero;stroke:none;" d="M5.982 3.6016 C5.982 2.0606 5.682 1 4.141 1 C2.921 1 2.141 2.1406 1.981 3.8008 L5.982 3.6016 Z M1.961 4.6016 C1.961 6.8809 3.181 8.502 5.281 8.502 C6.081 8.502 7.041 8.1221 7.781 7.6621 L8.102 8.4219 C7.142 9.082 5.882 9.6426 4.602 10.002 C2.181 10.002 0 8.2813 0 5.1406 C0 2.1807 1.78 0.5996 4.522 0 C7.161 0 8.062 1.6602 8.062 3.7608 L8.062 4.6016 L1.961 4.6016 Z" transform="translate(131.456, 9.4121)"/>
     <path style="fill:#dd6700; fill-rule:nonzero;stroke:none;" d="M3.241 2.8008 L5.52 0 L7.122 0 L7.122 2.001 L5.64 2.001 C5.161 2.1016 4.28 2.7617 3.741 3.4219 L3.341 3.9014 L3.341 8.6621 L5.441 8.8623 L5.342 9.6231 L2.44 9.5625 L0.2 9.6231 L0.099 8.9219 L1.501 8.7227 L1.501 1.4209 L0.099 1.541 L0 0.8408 L2.4 0.2207 L3.201 0.1602 L3.241 2.8008 Z" transform="translate(140.756, 9.5117)"/>
     <path style="fill:#dd6700; fill-rule:nonzero;stroke:none;" d="M5.402 1.4199 C5.202 1.3008 4.602 0.9805 3.881 0.9805 C3.101 0.9805 2.361 1.3994 2.361 2.1602 C2.361 2.8008 2.861 3.2012 3.761 3.6602 L5.302 4.4404 C6.642 5.1211 7.182 5.8809 7.182 7.0215 C7.182 8.8223 5.722 9.502 3.422 10.002 C2.201 10.002 0.901 9.4024 0.381 9.1016 L0 6.8418 L1.281 6.8418 L1.96 8.502 C2.381 8.7813 2.96 9.002 3.601 9.002 C4.662 9.002 5.202 8.3223 5.202 7.4815 C5.202 6.7012 4.782 6.3613 3.741 5.8213 L2.161 5.001 C1.301 4.5606 0.481 3.8008 0.481 2.6807 C0.481 1.2803 1.781 0.5 4.102 0 C5.182 0 6.342 0.4805 6.922 0.8994 L6.922 2.8994 L5.862 2.8994 L5.402 1.4199 Z" transform="translate(148.775, 9.4121)"/>
     <path style="fill:#dd6700; fill-rule:nonzero;stroke:none;" d="M1.5 0.1006 L2.941 0 L3.5 0.1006 L3.6 1.2207 L3.38 2.1807 L1.96 2.3008 L1.42 2.1807 L1.3 1.0606 L1.5 0.1006 Z M2.5 13.8633 L0.2 13.9239 L0.1 13.2227 L1.5 13.0235 L1.5 5.7217 L0.1 5.8418 L0 5.1416 L2.401 4.5215 L3.401 4.4414 L3.401 13.0235 L4.901 13.2227 L4.801 13.9239 L2.5 13.8633 Z" transform="translate(157.196, 5.2109)"/>
     <path style="fill:#dd6700; fill-rule:nonzero;stroke:none;" d="M7.321 16.6045 L7.321 14.6036 L9.042 14.6036 L11.021 11.583 L10.222 11.8233 L6.86 3.4014 L3.841 3.4014 L3.841 9.503 C3.841 10.083 4.06 10.7032 4.9 10.7032 C5.48 10.7032 6.1 10.4229 6.661 10.1426 L7.001 10.8233 L4.48 12.2032 C2.24 12.2032 1.939 11.4034 1.939 9.6036 L1.939 3.6416 L0 3.6416 L0 3.3008 L0.7 2.6016 L2 2.6016 L2 1.3008 L3.3 0 L3.821 0 L3.821 2.501 L10.122 2.501 L10.222 3.1817 L8.901 3.3809 L11.122 9.2422 L11.282 10.6231 L13.762 3.3809 L12.842 3.1817 L12.942 2.4815 L14.703 2.5411 L16.363 2.4815 L16.463 3.1817 L15.183 3.3809 L11.941 11.5635 L9.702 16.6045 L7.321 16.6045 Z" transform="translate(162.296, 7.2109)"/>
     <path style="fill:#dd6700; fill-rule:nonzero;stroke:none;" d="M4.961 9.0215 C6.562 9.0215 7.382 7.3818 7.382 5.2207 C7.382 2.6807 6.161 0.9805 4.422 0.9805 C2.801 0.9805 2.001 2.6211 2.001 4.8008 C2.001 7.082 3.181 9.0215 4.961 9.0215 Z M9.383 4.8008 C9.383 7.7813 7.562 9.502 4.461 10.002 C1.8 10.002 0 7.9414 0 5.2207 C0 2.2207 1.82 0.5195 4.922 0 C7.582 0 9.383 2.0801 9.383 4.8008 " transform="translate(182.555, 9.4121)"/>
     <path style="fill:#dd6700; fill-rule:nonzero;stroke:none;" d="M3.662 5.001 L6.163 5.001 L6.163 5.9414 L3.662 5.9414 L3.662 13.3233 L5.962 13.4629 L5.863 14.2237 L2.761 14.1631 L0.461 14.2237 L0.362 13.5215 L1.761 13.3233 L1.761 5.9414 L0 5.9414 L0 5.6006 L0.6 4.9014 L1.761 4.9014 L1.761 4.7012 C1.761 3.501 2.141 2.7207 2.862 1.9004 L4.541 0 L7.063 0 L7.063 1.6006 L4.461 1.6006 L4.081 2.1407 C3.801 2.5205 3.662 3.1006 3.662 4.4014 L3.662 5.001 Z" transform="translate(192.774, 4.9111)"/>
     <path style="fill:#dd6700; fill-rule:nonzero;stroke:none;" d="M9.001 14.043 L5.761 13.9824 L2.401 14.043 L2.3 13.3418 L4.701 13.082 L4.701 0.959 L1.701 1 L0.78 3.54 L0 3.54 L0 0 L5.742 0.0596 L11.502 0 L11.502 3.54 L10.722 3.54 L9.801 1 L6.801 0.959 L6.801 13.082 L9.101 13.3418 L9.001 14.043 Z" transform="translate(205.235, 5.0918)"/>
     <path style="fill:#dd6700; fill-rule:nonzero;stroke:none;" d="M5.981 3.6016 C5.981 2.0606 5.682 1 4.141 1 C2.921 1 2.141 2.1406 1.98 3.8008 L5.981 3.6016 Z M1.961 4.6016 C1.961 6.8809 3.181 8.502 5.281 8.502 C6.081 8.502 7.041 8.1221 7.781 7.6621 L8.102 8.4219 C7.142 9.082 5.882 9.6426 4.602 10.002 C2.181 10.002 0 8.2813 0 5.1406 C0 2.1807 1.78 0.5996 4.521 0 C7.161 0 8.061 1.6602 8.061 3.7608 L8.061 4.6016 L1.961 4.6016 Z" transform="translate(215.835, 9.4121)"/>
     <path style="fill:#dd6700; fill-rule:nonzero;stroke:none;" d="M3.821 8.7412 L3.72 9.4424 L2.16 9.3818 L0.099 9.4424 L0 8.7412 L1.4 8.542 L4.361 4.9014 L1.46 0.9199 L0.219 0.7197 L0.32 0 L2.621 0.0596 L4.52 0 L4.621 0.7197 L3.841 0.9199 L5.321 3.1406 L5.48 3.6611 L7.382 0.9199 L6.401 0.7197 L6.502 0 L8.061 0.0596 L10.122 0 L10.221 0.7197 L8.782 0.9199 L6.14 4.1201 L9.282 8.542 L10.521 8.7412 L10.422 9.4424 L8.122 9.3818 L6.22 9.4424 L6.121 8.7412 L6.941 8.542 L5.161 5.9609 L5.001 5.501 L2.881 8.542 L3.821 8.7412 Z" transform="translate(224.635, 9.6924)"/>
     <path style="fill:#dd6700; fill-rule:nonzero;stroke:none;" d="M5.202 4.9014 L2.3 6.1016 C2 6.4014 1.901 6.8018 1.901 7.2217 C1.901 8.2422 2.481 8.6016 3.061 8.6016 C3.621 8.6016 4.102 8.2617 4.362 8.082 L5.202 7.502 L5.202 4.9014 Z M3.942 0 C6.461 0 7.102 0.6406 7.102 3.1807 L7.102 7.1016 C7.102 7.9619 7.243 8.2813 7.442 8.6016 L8.443 8.6016 L8.523 9.3027 L5.942 9.8027 L5.322 8.2617 L2.941 10.002 C1.221 10.002 0 9.042 0 7.4414 C0 6.7217 0.26 6.2012 0.701 5.6016 L5.202 4.1016 L5.202 3.1006 C5.202 1.9004 5.102 1.1797 4.022 1.1797 C3.482 1.1797 2.822 1.3604 2.38 1.541 L2.041 3.1211 L0.321 3.1211 L0.321 1.6006 L3.942 0 Z" transform="translate(235.854, 9.4121)"/>
     <path style="fill:#dd6700; fill-rule:nonzero;stroke:none;" d="M5.401 1.4199 C5.201 1.3008 4.6 0.9805 3.88 0.9805 C3.099 0.9805 2.36 1.3994 2.36 2.1602 C2.36 2.8008 2.86 3.2012 3.76 3.6602 L5.301 4.4404 C6.64 5.1211 7.18 5.8809 7.18 7.0215 C7.18 8.8223 5.721 9.502 3.421 10.002 C2.2 10.002 0.9 9.4024 0.38 9.1016 L0 6.8418 L1.28 6.8418 L1.96 8.502 C2.38 8.7813 2.96 9.002 3.599 9.002 C4.661 9.002 5.201 8.3223 5.201 7.4815 C5.201 6.7012 4.781 6.3613 3.74 5.8213 L2.16 5.001 C1.3 4.5606 0.479 3.8008 0.479 2.6807 C0.479 1.2803 1.78 0.5 4.1 0 C5.18 0 6.341 0.4805 6.921 0.8994 L6.921 2.8994 L5.861 2.8994 L5.401 1.4199 Z" transform="translate(245.175, 9.4121)"/>
     <path style="fill:#dd6700; fill-rule:nonzero;stroke:none;" d="M5.201 4.9014 L2.3 6.1016 C2 6.4014 1.901 6.8018 1.901 7.2217 C1.901 8.2422 2.481 8.6016 3.061 8.6016 C3.62 8.6016 4.102 8.2617 4.361 8.082 L5.201 7.502 L5.201 4.9014 Z M3.942 0 C6.461 0 7.102 0.6406 7.102 3.1807 L7.102 7.1016 C7.102 7.9619 7.242 8.2813 7.442 8.6016 L8.443 8.6016 L8.523 9.3027 L5.942 9.8027 L5.321 8.2617 L2.941 10.002 C1.22 10.002 0 9.042 0 7.4414 C0 6.7217 0.26 6.2012 0.7 5.6016 L5.201 4.1016 L5.201 3.1006 C5.201 1.9004 5.102 1.1797 4.022 1.1797 C3.482 1.1797 2.821 1.3604 2.38 1.541 L2.04 3.1211 L0.32 3.1211 L0.32 1.6006 L3.942 0 Z" transform="translate(258.494, 9.4121)"/>
     <path style="fill:#dd6700; fill-rule:nonzero;stroke:none;" d="M0 3.6406 L0 3.2998 L0.699 2.6006 L2 2.6006 L2 1.2998 L3.301 0 L3.82 0 L3.82 2.7402 L6.841 2.7402 L6.841 3.6406 L3.841 3.6406 L3.841 9.502 C3.841 10.082 4.061 10.7022 4.9 10.7022 C5.481 10.7022 5.921 10.502 6.481 10.2217 L6.82 10.9024 L4.481 12.2022 C2.239 12.2022 1.939 11.4024 1.939 9.6026 L1.939 3.6406 L0 3.6406 Z" transform="translate(266.915, 7.2119)"/>
     <path style="fill:#dd6700; fill-rule:nonzero;stroke:none;" d="M6.96 3.3008 L6.821 2.2207 L4.62 8.5821 L8.88 8.5821 L6.96 3.3008 Z M4.299 9.5225 L3 13.2627 L4.74 13.5225 L4.639 14.2237 L2.24 14.1631 L0.099 14.2237 L0 13.5225 L1.559 13.3028 L6.52 0.3409 L7.72 0 L12.942 13.3028 L14.502 13.5225 L14.402 14.2237 L11.641 14.1631 L9.001 14.2237 L8.901 13.5225 L10.601 13.2627 L9.241 9.5225 L4.299 9.5225 Z" transform="translate(277.895, 4.9111)"/>
     <path style="fill:#dd6700; fill-rule:nonzero;stroke:none;" d="M9.302 6.8614 C9.302 7.7217 9.401 8.0411 9.542 8.3614 L10.542 8.3614 L10.622 9.0625 L8.042 9.5625 L7.481 7.9415 L4.581 9.7618 C1.94 9.7618 1.5 8.8223 1.5 6.502 L1.5 1.2803 L0.099 1.3819 L0 0.5997 L2.4 0.0801 L3.4 0 L3.4 6.6612 C3.4 7.7012 3.841 8.1622 4.82 8.1622 C5.44 8.1622 6.241 7.6622 7.002 7.1622 L7.401 6.9014 L7.401 1.2803 L6.201 1.3819 L6.1 0.5997 L8.302 0.0801 L9.302 0 L9.302 6.8614 Z" transform="translate(291.594, 9.6523)"/>
     <path style="fill:#dd6700; fill-rule:nonzero;stroke:none;" d="M5.401 1.4199 C5.201 1.3008 4.601 0.9805 3.88 0.9805 C3.1 0.9805 2.361 1.3994 2.361 2.1602 C2.361 2.8008 2.861 3.2012 3.76 3.6602 L5.301 4.4404 C6.641 5.1211 7.181 5.8809 7.181 7.0215 C7.181 8.8223 5.721 9.502 3.421 10.002 C2.2 10.002 0.9 9.4024 0.38 9.1016 L0 6.8418 L1.281 6.8418 L1.96 8.502 C2.38 8.7813 2.96 9.002 3.6 9.002 C4.661 9.002 5.201 8.3223 5.201 7.4815 C5.201 6.7012 4.782 6.3613 3.74 5.8213 L2.16 5.001 C1.3 4.5606 0.48 3.8008 0.48 2.6807 C0.48 1.2803 1.781 0.5 4.101 0 C5.181 0 6.341 0.4805 6.921 0.8994 L6.921 2.8994 L5.862 2.8994 L5.401 1.4199 Z" transform="translate(303.114, 9.4121)"/>
     <path style="fill:#dd6700; fill-rule:nonzero;stroke:none;" d="M0 3.6406 L0 3.2998 L0.699 2.6006 L2 2.6006 L2 1.2998 L3.3 0 L3.82 0 L3.82 2.7402 L6.84 2.7402 L6.84 3.6406 L3.84 3.6406 L3.84 9.502 C3.84 10.082 4.06 10.7022 4.9 10.7022 C5.48 10.7022 5.92 10.502 6.48 10.2217 L6.82 10.9024 L4.48 12.2022 C2.239 12.2022 1.939 11.4024 1.939 9.6026 L1.939 3.6406 L0 3.6406 Z" transform="translate(310.935, 7.2119)"/>
     <path style="fill:#dd6700; fill-rule:nonzero;stroke:none;" d="M1.5 0.1006 L2.94 0 L3.5 0.1006 L3.6 1.2207 L3.38 2.1807 L1.96 2.3008 L1.42 2.1807 L1.3 1.0606 L1.5 0.1006 Z M2.5 13.8633 L0.2 13.9239 L0.1 13.2227 L1.5 13.0235 L1.5 5.7217 L0.1 5.8418 L0 5.1416 L2.4 4.5215 L3.4 4.4414 L3.4 13.0235 L4.9 13.2227 L4.801 13.9239 L2.5 13.8633 Z" transform="translate(318.814, 5.2109)"/>
     <path style="fill:#dd6700; fill-rule:nonzero;stroke:none;" d="M2.5 9.6621 L0.2 9.7227 L0.099 9.0215 L1.5 8.8223 L1.5 1.5205 L0.099 1.6406 L0 0.9404 L2.4 0.3203 L3.259 0.2598 L3.36 1.9404 L6.321 0 C8.881 0 9.301 0.8604 9.301 3.2608 L9.301 8.8223 L10.822 9.0215 L10.721 9.7227 L8.421 9.6621 L6.501 9.7227 L6.401 9.0215 L7.401 8.8223 L7.401 3.1006 C7.401 2.0606 6.941 1.5996 6.081 1.5996 C5.381 1.5996 4.68 2.041 4 2.5 L3.4 2.9004 L3.4 8.8223 L4.5 9.0215 L4.4 9.7227 L2.5 9.6621 Z" transform="translate(324.514, 9.4121)"/>
     <path style="fill:#202f39; fill-rule:nonzero;stroke:none;" d="M12.895 20.1145 L8.252 20.0285 L3.44 20.1145 L3.295 19.1104 L6.735 18.7403 L6.735 1.3741 L2.436 1.4327 L1.119 5.0723 L0 5.0723 L0 0 L8.224 0.087 L16.477 0 L16.477 5.0723 L15.36 5.0723 L14.041 1.4327 L9.744 1.3741 L9.744 18.7403 L13.039 19.1104 L12.895 20.1145 Z" transform="translate(57.607, 27.9775)"/>
     <path style="fill:#202f39; fill-rule:nonzero;stroke:none;" d="M8.568 5.1562 C8.568 2.9511 8.136 1.4316 5.93 1.4316 C4.183 1.4316 3.067 3.0654 2.836 5.4424 L8.568 5.1562 Z M2.808 6.5879 C2.808 9.8545 4.555 12.1758 7.564 12.1758 C8.71 12.1758 10.086 11.6328 11.145 10.9726 L11.605 12.0615 C10.228 13.0068 8.423 13.8095 6.589 14.325 C3.123 14.325 0 11.8613 0 7.3633 C0 3.1211 2.55 0.8584 6.475 0 C10.257 0 11.546 2.3769 11.546 5.3847 L11.546 6.5879 L2.808 6.5879 Z" transform="translate(75.526, 34.168)"/>
     <path style="fill:#202f39; fill-rule:nonzero;stroke:none;" d="M5.472 12.5195 L5.329 13.5236 L3.094 13.4376 L0.142 13.5236 L0 12.5195 L2.006 12.2353 L6.246 7.0185 L2.092 1.3164 L0.314 1.0312 L0.459 0 L3.753 0.0839 L6.475 0 L6.618 1.0312 L5.502 1.3164 L7.621 4.499 L7.85 5.2431 L10.572 1.3164 L9.17 1.0312 L9.311 0 L11.547 0.0839 L14.498 0 L14.641 1.0312 L12.579 1.3164 L8.796 5.9013 L13.296 12.2353 L15.07 12.5195 L14.928 13.5236 L11.633 13.4376 L8.912 13.5236 L8.767 12.5195 L9.942 12.2353 L7.392 8.5371 L7.163 7.8798 L4.126 12.2353 L5.472 12.5195 Z" transform="translate(88.427, 34.5684)"/>
     <path style="fill:#202f39; fill-rule:nonzero;stroke:none;" d="M7.449 7.0175 L3.295 8.7373 C2.864 9.1689 2.72 9.7402 2.72 10.3418 C2.72 11.8027 3.553 12.3203 4.384 12.3203 C5.185 12.3203 5.873 11.833 6.246 11.5742 L7.449 10.7441 L7.449 7.0175 Z M5.643 0 C9.255 0 10.172 0.916 10.172 4.5537 L10.172 10.1699 C10.172 11.4043 10.371 11.8613 10.658 12.3203 L12.091 12.3203 L12.205 13.3222 L8.51 14.038 L7.621 11.833 L4.212 14.325 C1.747 14.325 0 12.9511 0 10.6572 C0 9.6259 0.372 8.8818 1.003 8.0205 L7.449 5.8711 L7.449 4.4394 C7.449 2.7197 7.305 1.6884 5.759 1.6884 C4.985 1.6884 4.039 1.9472 3.409 2.2041 L2.922 4.4677 L0.458 4.4677 L0.458 2.291 L5.643 0 Z" transform="translate(104.51, 34.168)"/>
     <path style="fill:#202f39; fill-rule:nonzero;stroke:none;" d="M7.737 2.0341 C7.45 1.8613 6.589 1.4023 5.559 1.4023 C4.442 1.4023 3.38 2.0039 3.38 3.0937 C3.38 4.0097 4.097 4.584 5.387 5.2422 L7.593 6.3593 C9.513 7.3349 10.287 8.4218 10.287 10.0547 C10.287 12.6357 8.195 13.6084 4.9 14.325 C3.153 14.325 1.289 13.4668 0.545 13.0371 L0 9.7988 L1.834 9.7988 L2.808 12.1758 C3.41 12.5771 4.241 12.8925 5.158 12.8925 C6.676 12.8925 7.45 11.9199 7.45 10.7158 C7.45 9.5966 6.848 9.1103 5.358 8.3359 L3.095 7.1621 C1.862 6.5322 0.687 5.4424 0.687 3.8379 C0.687 1.834 2.55 0.7158 5.874 0 C7.421 0 9.083 0.6855 9.915 1.2871 L9.915 4.1523 L8.396 4.1523 L7.737 2.0341 Z" transform="translate(117.726, 34.168)"/>
     <path style="fill:#202f39; fill-rule:nonzero;stroke:none;" d="M3.008 17.708 C3.868 18.7676 5.444 19.5137 7.048 19.5137 C9.512 19.5137 10.945 17.9649 10.945 15.875 C10.945 13.9268 9.685 12.8086 7.965 12.0616 L4.498 10.5459 C2.435 9.6563 0.745 8.3389 0.745 5.7881 C0.745 2.6641 3.61 0.8301 7.592 0 C9.398 0 11.404 0.6016 12.836 1.6612 L12.836 5.5293 L11.404 5.5293 L10.573 2.9239 C9.828 2.1485 8.911 1.5186 7.193 1.5186 C4.928 1.5186 3.582 2.751 3.582 4.6709 C3.582 6.2461 4.699 7.2207 6.276 7.9092 L9.57 9.3418 C11.833 10.3145 13.811 11.7471 13.782 14.6709 C13.782 17.3633 11.948 19.9717 6.561 21.0888 C3.925 21.0888 2.149 20.3448 0.63 19.1407 L0 15.2715 L2.005 15.2715 L3.008 17.708 Z" transform="translate(137.106, 27.4902)"/>
     <path style="fill:#202f39; fill-rule:nonzero;stroke:none;" d="M7.993 1.9756 C7.535 1.6328 7.106 1.5156 6.332 1.5156 C4.384 1.5156 2.894 3.6953 2.894 6.8193 C2.894 9.8847 4.556 12.1758 7.364 12.1758 C8.452 12.1758 9.599 11.6328 10.602 10.9726 L11.061 12.0615 C9.743 13.0068 8.281 13.7226 6.39 14.325 C2.721 14.325 0 11.9199 0 7.5049 C0 3.0068 3.294 0.8584 6.819 0 C8.137 0 9.913 0.6572 10.774 1.4316 L10.774 4.2968 L8.653 4.2968 L7.993 1.9756 Z" transform="translate(153.361, 34.168)"/>
     <path style="fill:#202f39; fill-rule:nonzero;stroke:none;" d="M4.87 19.1992 L6.446 19.4834 L6.305 20.4875 L3.582 20.4015 L0.286 20.4875 L0.143 19.4834 L2.148 19.1992 L2.148 1.9199 L0.143 1.9785 L0 1.0029 L3.437 0.1143 L4.87 0 L4.87 9.2832 L9.056 6.5635 C12.723 6.5635 13.323 7.9375 13.323 11.5771 L13.323 19.1992 L15.474 19.4834 L15.329 20.4875 L12.034 20.4015 L9.341 20.4875 L9.197 19.4834 L10.601 19.1992 L10.601 11.0029 C10.601 9.5146 9.915 8.8545 8.768 8.8545 C7.908 8.8545 6.791 9.4844 5.73 10.1445 L4.87 10.6885 L4.87 19.1992 Z" transform="translate(166.003, 27.6045)"/>
     <path style="fill:#202f39; fill-rule:nonzero;stroke:none;" d="M7.105 12.9199 C9.397 12.9199 10.572 10.5713 10.572 7.4775 C10.572 3.8379 8.824 1.4023 6.333 1.4023 C4.01 1.4023 2.864 3.7509 2.864 6.875 C2.864 10.1416 4.555 12.9199 7.105 12.9199 Z M13.438 6.875 C13.438 11.1445 10.83 13.6084 6.389 14.325 C2.577 14.325 0 11.373 0 7.4775 C0 3.1797 2.606 0.7441 7.048 0 C10.859 0 13.438 2.9785 13.438 6.875 " transform="translate(182.976, 34.168)"/>
     <path style="fill:#202f39; fill-rule:nonzero;stroke:none;" d="M3.581 20.4015 L0.285 20.4875 L0.144 19.4834 L2.149 19.1992 L2.149 1.9482 L0.144 2.0068 L0 1.0029 L3.438 0.1143 L4.87 0 L4.87 19.1992 L7.021 19.4834 L6.877 20.4875 L3.581 20.4015 Z" transform="translate(198.284, 27.6045)"/>
     <path style="fill:#202f39; fill-rule:nonzero;stroke:none;" d="M7.45 7.0175 L3.296 8.7373 C2.866 9.1689 2.722 9.7402 2.722 10.3418 C2.722 11.8027 3.554 12.3203 4.383 12.3203 C5.187 12.3203 5.874 11.833 6.246 11.5742 L7.45 10.7441 L7.45 7.0175 Z M5.645 0 C9.256 0 10.173 0.916 10.173 4.5537 L10.173 10.1699 C10.173 11.4043 10.373 11.8613 10.659 12.3203 L12.091 12.3203 L12.207 13.3222 L8.511 14.038 L7.623 11.833 L4.213 14.325 C1.748 14.325 0 12.9511 0 10.6572 C0 9.6259 0.372 8.8818 1.004 8.0205 L7.45 5.8711 L7.45 4.4394 C7.45 2.7197 7.307 1.6884 5.76 1.6884 C4.987 1.6884 4.04 1.9472 3.41 2.2041 L2.923 4.4677 L0.459 4.4677 L0.459 2.291 L5.645 0 Z" transform="translate(206.598, 34.168)"/>
     <path style="fill:#202f39; fill-rule:nonzero;stroke:none;" d="M4.642 4.0107 L7.908 0 L10.201 0 L10.201 2.8642 L8.082 2.8642 C7.392 3.0097 6.132 3.955 5.358 4.8994 L4.787 5.5879 L4.787 12.4082 L7.794 12.6943 L7.65 13.7814 L3.497 13.6964 L0.287 13.7814 L0.143 12.7783 L2.149 12.4941 L2.149 2.0351 L0.143 2.208 L0 1.2041 L3.438 0.3154 L4.585 0.2295 L4.642 4.0107 Z" transform="translate(219.814, 34.3096)"/>
     <path style="fill:#202f39; fill-rule:nonzero;stroke:none;" d="M18.081 20.5155 L14.097 8.3946 L14.012 6.7061 L9.914 19.7989 L7.938 20.5155 L1.662 1.3184 L0 1.0039 L0.144 0 L3.612 0.087 L7.107 0 L7.249 1.0039 L4.815 1.3741 L9.114 15.3877 L9.17 16.9922 L12.895 4.6123 L11.805 1.3184 L10 1.0039 L10.145 0 L13.754 0.087 L17.249 0 L17.394 1.0039 L14.957 1.3741 L19.256 15.3877 L19.314 16.9922 L24.041 1.3184 L21.576 1.0039 L21.72 0 L25.015 0.087 L27.508 0 L27.651 1.0039 L25.99 1.3184 L20.057 19.7989 L18.081 20.5155 Z" transform="translate(230.737, 27.9775)"/>
     <path style="fill:#202f39; fill-rule:nonzero;stroke:none;" d="M7.105 12.9199 C9.399 12.9199 10.573 10.5713 10.573 7.4775 C10.573 3.8379 8.826 1.4023 6.332 1.4023 C4.01 1.4023 2.866 3.7509 2.866 6.875 C2.866 10.1416 4.555 12.9199 7.105 12.9199 Z M13.438 6.875 C13.438 11.1445 10.83 13.6084 6.389 14.325 C2.578 14.325 0 11.373 0 7.4775 C0 3.1797 2.608 0.7441 7.048 0 C10.86 0 13.438 2.9785 13.438 6.875 " transform="translate(259.693, 34.168)"/>
     <path style="fill:#202f39; fill-rule:nonzero;stroke:none;" d="M4.642 4.0107 L7.908 0 L10.2 0 L10.2 2.8642 L8.081 2.8642 C7.393 3.0097 6.132 3.955 5.357 4.8994 L4.786 5.5879 L4.786 12.4082 L7.794 12.6943 L7.65 13.7814 L3.496 13.6964 L0.286 13.7814 L0.144 12.7783 L2.148 12.4941 L2.148 2.0351 L0.144 2.208 L0 1.2041 L3.437 0.3154 L4.585 0.2295 L4.642 4.0107 Z" transform="translate(275.002, 34.3096)"/>
     <path style="fill:#202f39; fill-rule:nonzero;stroke:none;" d="M12.207 20.4015 L10.486 20.4875 L5.186 13.8682 L4.87 13.1514 L4.87 19.1992 L6.445 19.4834 L6.304 20.4875 L3.581 20.4015 L0.286 20.4875 L0.144 19.4834 L2.147 19.1992 L2.147 1.9482 L0.144 2.0068 L0 1.0029 L3.437 0.1143 L4.87 0 L4.87 12.667 L5.645 12.3213 L10.286 8.2519 L9.456 7.9658 L9.456 6.9639 L11.833 7.0478 L13.981 6.9639 L14.126 7.9658 L12.606 8.2519 L7.19 12.6357 L7.82 13.0098 L13.353 19.1992 L14.642 19.4834 L14.498 20.4875 L12.207 20.4015 Z" transform="translate(286.499, 27.6045)"/>
     <path style="fill:#202f39; fill-rule:nonzero;stroke:none;" d="M7.738 2.0341 C7.451 1.8613 6.59 1.4023 5.559 1.4023 C4.441 1.4023 3.381 2.0039 3.381 3.0937 C3.381 4.0097 4.097 4.584 5.387 5.2422 L7.593 6.3593 C9.513 7.3349 10.287 8.4218 10.287 10.0547 C10.287 12.6357 8.196 13.6084 4.9 14.325 C3.153 14.325 1.289 13.4668 0.545 13.0371 L0 9.7988 L1.834 9.7988 L2.808 12.1758 C3.411 12.5771 4.242 12.8925 5.158 12.8925 C6.676 12.8925 7.451 11.9199 7.451 10.7158 C7.451 9.5966 6.848 9.1103 5.358 8.3359 L3.095 7.1621 C1.863 6.5322 0.687 5.4424 0.687 3.8379 C0.687 1.834 2.55 0.7158 5.874 0 C7.422 0 9.083 0.6855 9.914 1.2871 L9.914 4.1523 L8.396 4.1523 L7.738 2.0341 Z" transform="translate(302.151, 34.168)"/>
    </g>
   </g>
  </g>
 </g>
</svg>
